<svg width="1440" height="850" viewBox="0 0 1440 850" fill="none" xmlns="http://www.w3.org/2000/svg">
<rect width="576" height="850" fill="#FFC93E"/>
<rect x="576" width="864" height="850" fill="#353F5B"/>
<path d="M725.299 162.556C724.944 162.708 724.587 162.856 724.228 163L682.772 163C682.413 162.856 682.056 162.708 681.701 162.556L725.299 162.556Z" fill="white"/>
<path d="M733.641 158.116C733.41 158.266 733.177 158.414 732.944 158.56L674.056 158.56C673.823 158.414 673.59 158.266 673.359 158.116L733.641 158.116Z" fill="white"/>
<path d="M739.59 153.676C739.416 153.825 739.241 153.973 739.065 154.12L667.935 154.12C667.759 153.973 667.584 153.825 667.41 153.676L739.59 153.676Z" fill="white"/>
<path d="M744.214 149.237C744.076 149.385 743.937 149.533 743.797 149.68L663.203 149.68C663.063 149.533 662.924 149.385 662.786 149.237L744.214 149.237Z" fill="white"/>
<path d="M747.926 144.797C747.815 144.945 747.702 145.093 747.589 145.241L659.411 145.241C659.298 145.093 659.185 144.945 659.074 144.797L747.926 144.797Z" fill="white"/>
<path d="M750.939 140.357C750.849 140.505 750.758 140.653 750.666 140.801L656.334 140.801C656.242 140.653 656.151 140.505 656.061 140.357L750.939 140.357Z" fill="white"/>
<path d="M753.378 135.917C753.305 136.065 753.231 136.213 753.157 136.361L653.843 136.361C653.769 136.213 653.695 136.065 653.622 135.917L753.378 135.917Z" fill="white"/>
<path d="M755.321 131.477C755.264 131.625 755.206 131.773 755.147 131.921L651.853 131.921C651.794 131.773 651.736 131.625 651.679 131.477L755.321 131.477Z" fill="white"/>
<path d="M756.822 127.037C756.779 127.186 756.735 127.334 756.69 127.481L650.31 127.481C650.265 127.334 650.221 127.186 650.178 127.037L756.822 127.037Z" fill="white"/>
<path d="M757.917 122.598C757.887 122.746 757.856 122.894 757.825 123.041L649.175 123.041C649.144 122.894 649.113 122.746 649.083 122.598L757.917 122.598Z" fill="white"/>
<path d="M758.632 118.158C758.614 118.306 758.596 118.454 758.577 118.602L648.423 118.602C648.404 118.454 648.386 118.306 648.368 118.158L758.632 118.158Z" fill="white"/>
<path d="M758.984 113.718C758.978 113.866 758.972 114.014 758.965 114.162L648.035 114.162C648.028 114.014 648.022 113.866 648.016 113.718L758.984 113.718Z" fill="white"/>
<path d="M758.984 109.278C758.99 109.426 758.995 109.574 759 109.722L648 109.722C648.005 109.574 648.01 109.426 648.016 109.278L758.984 109.278Z" fill="white"/>
<path d="M758.632 104.838C758.65 104.986 758.667 105.134 758.684 105.282L648.316 105.282C648.333 105.134 648.35 104.986 648.368 104.838L758.632 104.838Z" fill="white"/>
<path d="M757.917 100.398C757.947 100.546 757.977 100.694 758.005 100.842L648.995 100.842C649.023 100.694 649.053 100.546 649.083 100.398L757.917 100.398Z" fill="white"/>
<path d="M756.822 95.9585C756.865 96.1063 756.907 96.2542 756.949 96.4025L650.051 96.4025C650.093 96.2542 650.135 96.1062 650.178 95.9585L756.822 95.9585Z" fill="white"/>
<path d="M755.321 91.5187C755.378 91.6664 755.434 91.8144 755.49 91.9627L651.51 91.9627C651.566 91.8144 651.622 91.6664 651.679 91.5187L755.321 91.5187Z" fill="white"/>
<path d="M753.378 87.0788C753.45 87.2265 753.522 87.3745 753.593 87.5228L653.407 87.5228C653.478 87.3745 653.55 87.2265 653.622 87.0788L753.378 87.0788Z" fill="white"/>
<path d="M750.939 82.639C751.03 82.7866 751.119 82.9345 751.208 83.083L655.792 83.083C655.881 82.9345 655.971 82.7865 656.061 82.639L750.939 82.639Z" fill="white"/>
<path d="M747.926 78.1992C748.037 78.3466 748.147 78.4946 748.257 78.6432L658.743 78.6431C658.853 78.4946 658.963 78.3466 659.074 78.1992L747.926 78.1992Z" fill="white"/>
<path d="M744.214 73.7593C744.351 73.9066 744.487 74.0546 744.622 74.2033L662.378 74.2033C662.513 74.0546 662.649 73.9066 662.786 73.7593L744.214 73.7593Z" fill="white"/>
<path d="M739.59 69.3195C739.762 69.4665 739.933 69.6145 740.103 69.7635L666.897 69.7635C667.067 69.6145 667.238 69.4665 667.41 69.3195L739.59 69.3195Z" fill="white"/>
<path d="M733.641 64.8797C733.867 65.0261 734.092 65.1741 734.316 65.3237L672.684 65.3236C672.908 65.1741 673.133 65.0261 673.359 64.8797L733.641 64.8797Z" fill="white"/>
<path d="M725.299 60.4398C725.638 60.5846 725.975 60.7326 726.31 60.8838L680.69 60.8838C681.025 60.7326 681.362 60.5846 681.701 60.4398L725.299 60.4398Z" fill="white"/>
<path d="M696.443 56.444C698.754 56.151 701.109 56 703.5 56C705.891 56 708.246 56.151 710.557 56.444L696.443 56.444Z" fill="white"/>
</svg>
