<svg width="112" height="32" viewBox="0 0 112 32" fill="none" xmlns="http://www.w3.org/2000/svg">
<g filter="url(#filter0_d_1_617)">
<path d="M2 15C2 7.26801 8.26801 1 16 1H96C103.732 1 110 7.26801 110 15V15C110 22.732 103.732 29 96 29H16C8.26801 29 2 22.732 2 15V15Z" fill="#F3F5F6"/>
<path d="M17.3904 19V11.716H14.4384V10.6H21.6024V11.716H18.6504V19H17.3904ZM22.6567 19V10.6H28.8487V11.704H23.9167V14.224H27.1567V15.292H23.9167V17.896H28.8967V19H22.6567ZM33.7202 19.132C33.0962 19.132 32.5162 19.024 31.9802 18.808C31.4522 18.584 30.9842 18.276 30.5762 17.884C30.1762 17.484 29.8642 17.024 29.6402 16.504C29.4242 15.976 29.3162 15.408 29.3162 14.8C29.3162 14.192 29.4242 13.628 29.6402 13.108C29.8642 12.58 30.1762 12.12 30.5762 11.728C30.9842 11.328 31.4562 11.02 31.9922 10.804C32.5282 10.58 33.1042 10.468 33.7202 10.468C34.1602 10.468 34.5882 10.528 35.0042 10.648C35.4282 10.76 35.8162 10.924 36.1682 11.14C36.5282 11.356 36.8402 11.616 37.1042 11.92L36.2642 12.784C35.9522 12.408 35.5722 12.124 35.1242 11.932C34.6762 11.732 34.2082 11.632 33.7202 11.632C33.2722 11.632 32.8562 11.712 32.4722 11.872C32.0962 12.032 31.7682 12.256 31.4882 12.544C31.2082 12.824 30.9882 13.156 30.8282 13.54C30.6762 13.924 30.6002 14.344 30.6002 14.8C30.6002 15.248 30.6762 15.664 30.8282 16.048C30.9882 16.432 31.2122 16.768 31.5002 17.056C31.7882 17.344 32.1242 17.568 32.5082 17.728C32.8922 17.888 33.3082 17.968 33.7562 17.968C34.2442 17.968 34.7042 17.872 35.1362 17.68C35.5762 17.48 35.9482 17.2 36.2522 16.84L37.0802 17.68C36.8002 17.976 36.4802 18.236 36.1202 18.46C35.7682 18.676 35.3842 18.844 34.9682 18.964C34.5602 19.076 34.1442 19.132 33.7202 19.132ZM38.3129 19V10.6H39.5729V14.2H44.0369V10.6H45.2969V19H44.0369V15.34H39.5729V19H38.3129ZM47.0083 19V10.6H48.2323L52.9243 16.84V10.6H54.1123V19H53.0083L48.2083 12.568V19H47.0083ZM59.8405 19.132C59.2325 19.132 58.6645 19.024 58.1365 18.808C57.6085 18.584 57.1405 18.276 56.7325 17.884C56.3325 17.484 56.0205 17.024 55.7965 16.504C55.5805 15.976 55.4725 15.408 55.4725 14.8C55.4725 14.192 55.5805 13.628 55.7965 13.108C56.0205 12.58 56.3325 12.12 56.7325 11.728C57.1405 11.328 57.6085 11.02 58.1365 10.804C58.6645 10.58 59.2325 10.468 59.8405 10.468C60.4485 10.468 61.0165 10.58 61.5445 10.804C62.0805 11.02 62.5485 11.328 62.9485 11.728C63.3485 12.12 63.6605 12.58 63.8845 13.108C64.1085 13.628 64.2205 14.192 64.2205 14.8C64.2205 15.408 64.1085 15.976 63.8845 16.504C63.6605 17.024 63.3485 17.484 62.9485 17.884C62.5485 18.276 62.0805 18.584 61.5445 18.808C61.0165 19.024 60.4485 19.132 59.8405 19.132ZM59.8525 17.968C60.2845 17.968 60.6845 17.888 61.0525 17.728C61.4285 17.568 61.7565 17.348 62.0365 17.068C62.3165 16.78 62.5365 16.444 62.6965 16.06C62.8565 15.668 62.9365 15.248 62.9365 14.8C62.9365 14.344 62.8565 13.924 62.6965 13.54C62.5365 13.156 62.3165 12.824 62.0365 12.544C61.7565 12.256 61.4285 12.032 61.0525 11.872C60.6845 11.712 60.2845 11.632 59.8525 11.632C59.4125 11.632 59.0045 11.712 58.6285 11.872C58.2525 12.032 57.9245 12.256 57.6445 12.544C57.3645 12.824 57.1445 13.156 56.9845 13.54C56.8325 13.924 56.7565 14.344 56.7565 14.8C56.7565 15.248 56.8325 15.668 56.9845 16.06C57.1445 16.444 57.3645 16.78 57.6445 17.068C57.9245 17.348 58.2525 17.568 58.6285 17.728C59.0045 17.888 59.4125 17.968 59.8525 17.968ZM65.5473 19V10.6H66.8073V17.884H71.6433V19H65.5473ZM76.2233 19.132C75.6153 19.132 75.0473 19.024 74.5193 18.808C73.9913 18.584 73.5233 18.276 73.1153 17.884C72.7153 17.484 72.4033 17.024 72.1793 16.504C71.9633 15.976 71.8553 15.408 71.8553 14.8C71.8553 14.192 71.9633 13.628 72.1793 13.108C72.4033 12.58 72.7153 12.12 73.1153 11.728C73.5233 11.328 73.9913 11.02 74.5193 10.804C75.0473 10.58 75.6153 10.468 76.2233 10.468C76.8313 10.468 77.3993 10.58 77.9273 10.804C78.4633 11.02 78.9313 11.328 79.3313 11.728C79.7313 12.12 80.0433 12.58 80.2673 13.108C80.4913 13.628 80.6033 14.192 80.6033 14.8C80.6033 15.408 80.4913 15.976 80.2673 16.504C80.0433 17.024 79.7313 17.484 79.3313 17.884C78.9313 18.276 78.4633 18.584 77.9273 18.808C77.3993 19.024 76.8313 19.132 76.2233 19.132ZM76.2353 17.968C76.6673 17.968 77.0673 17.888 77.4353 17.728C77.8113 17.568 78.1393 17.348 78.4193 17.068C78.6993 16.78 78.9193 16.444 79.0793 16.06C79.2393 15.668 79.3193 15.248 79.3193 14.8C79.3193 14.344 79.2393 13.924 79.0793 13.54C78.9193 13.156 78.6993 12.824 78.4193 12.544C78.1393 12.256 77.8113 12.032 77.4353 11.872C77.0673 11.712 76.6673 11.632 76.2353 11.632C75.7953 11.632 75.3873 11.712 75.0113 11.872C74.6353 12.032 74.3073 12.256 74.0273 12.544C73.7473 12.824 73.5273 13.156 73.3673 13.54C73.2153 13.924 73.1393 14.344 73.1393 14.8C73.1393 15.248 73.2153 15.668 73.3673 16.06C73.5273 16.444 73.7473 16.78 74.0273 17.068C74.3073 17.348 74.6353 17.568 75.0113 17.728C75.3873 17.888 75.7953 17.968 76.2353 17.968ZM85.9621 19.132C85.3461 19.132 84.7701 19.02 84.2341 18.796C83.7061 18.572 83.2421 18.264 82.8421 17.872C82.4421 17.472 82.1301 17.012 81.9061 16.492C81.6821 15.964 81.5701 15.4 81.5701 14.8C81.5701 14.2 81.6781 13.64 81.8941 13.12C82.1181 12.592 82.4301 12.132 82.8301 11.74C83.2301 11.34 83.6941 11.028 84.2221 10.804C84.7501 10.58 85.3221 10.468 85.9381 10.468C86.6021 10.468 87.2301 10.596 87.8221 10.852C88.4141 11.108 88.9141 11.464 89.3221 11.92L88.4581 12.76C88.1541 12.4 87.7781 12.124 87.3301 11.932C86.8901 11.732 86.4261 11.632 85.9381 11.632C85.4981 11.632 85.0901 11.712 84.7141 11.872C84.3461 12.032 84.0221 12.256 83.7421 12.544C83.4621 12.824 83.2421 13.156 83.0821 13.54C82.9301 13.924 82.8541 14.344 82.8541 14.8C82.8541 15.248 82.9301 15.668 83.0821 16.06C83.2421 16.444 83.4621 16.78 83.7421 17.068C84.0301 17.356 84.3621 17.58 84.7381 17.74C85.1141 17.9 85.5221 17.98 85.9621 17.98C86.4581 17.98 86.9061 17.876 87.3061 17.668C87.7141 17.46 88.0461 17.176 88.3021 16.816C88.5581 16.448 88.7141 16.036 88.7701 15.58H85.9741V14.476H90.0901V14.908C90.0901 15.508 89.9861 16.064 89.7781 16.576C89.5701 17.088 89.2781 17.536 88.9021 17.92C88.5341 18.304 88.0981 18.604 87.5941 18.82C87.0901 19.028 86.5461 19.132 85.9621 19.132ZM93.1454 19V15.664L89.7614 10.6H91.2254L93.8054 14.548L96.3854 10.6H97.7894L94.4054 15.688V19H93.1454Z" fill="#FFC93E"/>
</g>
<defs>
<filter id="filter0_d_1_617" x="0" y="0" width="112" height="32" filterUnits="userSpaceOnUse" color-interpolation-filters="sRGB">
<feFlood flood-opacity="0" result="BackgroundImageFix"/>
<feColorMatrix in="SourceAlpha" type="matrix" values="0 0 0 0 0 0 0 0 0 0 0 0 0 0 0 0 0 0 127 0" result="hardAlpha"/>
<feOffset dy="1"/>
<feGaussianBlur stdDeviation="1"/>
<feColorMatrix type="matrix" values="0 0 0 0 0.411765 0 0 0 0 0.317647 0 0 0 0 1 0 0 0 0.05 0"/>
<feBlend mode="normal" in2="BackgroundImageFix" result="effect1_dropShadow_1_617"/>
<feBlend mode="normal" in="SourceGraphic" in2="effect1_dropShadow_1_617" result="shape"/>
</filter>
</defs>
</svg>
