<svg width="82" height="32" viewBox="0 0 82 32" fill="none" xmlns="http://www.w3.org/2000/svg">
<g filter="url(#filter0_d_1_627)">
<path d="M2 15C2 7.26801 8.26801 1 16 1H66C73.732 1 80 7.26801 80 15C80 22.732 73.732 29 66 29H16C8.26801 29 2 22.732 2 15Z" fill="white"/>
<path d="M17.6388 19H16.3428L14.5068 10.6H15.8028L17.1108 17.02L19.0068 10.6H20.2068L22.1028 17.02L23.4108 10.6H24.6588L22.8228 19H21.5268L19.5828 12.4L17.6388 19ZM25.8852 19V10.6H32.0772V11.704H27.1452V14.224H30.3852V15.304H27.1452V17.896H32.1252V19H25.8852ZM33.4204 10.6H37.0564C37.8724 10.6 38.5284 10.804 39.0244 11.212C39.5284 11.612 39.7804 12.148 39.7804 12.82C39.7804 13.22 39.6764 13.58 39.4684 13.9C39.2604 14.212 38.9764 14.456 38.6164 14.632C39.0724 14.808 39.4324 15.068 39.6964 15.412C39.9684 15.756 40.1044 16.156 40.1044 16.612C40.1044 17.332 39.8404 17.912 39.3124 18.352C38.7844 18.784 38.0844 19 37.2124 19H33.4204V10.6ZM36.9844 11.668H34.6804V14.164H36.9844C37.4564 14.164 37.8324 14.052 38.1124 13.828C38.3924 13.604 38.5324 13.3 38.5324 12.916C38.5324 12.532 38.3924 12.228 38.1124 12.004C37.8324 11.78 37.4564 11.668 36.9844 11.668ZM37.1164 17.932C37.6364 17.932 38.0524 17.808 38.3644 17.56C38.6764 17.304 38.8324 16.968 38.8324 16.552C38.8324 16.144 38.6764 15.812 38.3644 15.556C38.0524 15.3 37.6364 15.172 37.1164 15.172H34.6804V17.932H37.1164ZM41.4711 19V10.6H42.7311V19H41.4711ZM44.4477 10.6H45.6837L50.3637 16.828V10.6H51.5517V19H50.4477L45.6357 12.568V19H44.4477V10.6ZM53.2719 19V10.6H59.4639V11.704H54.5319V14.224H57.7719V15.304H54.5319V17.896H59.5119V19H53.2719ZM60.8071 19V10.6H64.6231C65.4551 10.6 66.1271 10.832 66.6391 11.296C67.1591 11.752 67.4191 12.348 67.4191 13.084C67.4191 13.636 67.2631 14.116 66.9511 14.524C66.6391 14.924 66.2191 15.212 65.6911 15.388L67.5631 19H66.1711L64.4311 15.556H62.0671V19H60.8071ZM64.5151 11.704H62.0671V14.512H64.5151C65.0031 14.512 65.3951 14.384 65.6911 14.128C65.9951 13.864 66.1471 13.524 66.1471 13.108C66.1471 12.684 65.9951 12.344 65.6911 12.088C65.3951 11.832 65.0031 11.704 64.5151 11.704Z" fill="#FFC93E"/>
</g>
<defs>
<filter id="filter0_d_1_627" x="0" y="0" width="82" height="32" filterUnits="userSpaceOnUse" color-interpolation-filters="sRGB">
<feFlood flood-opacity="0" result="BackgroundImageFix"/>
<feColorMatrix in="SourceAlpha" type="matrix" values="0 0 0 0 0 0 0 0 0 0 0 0 0 0 0 0 0 0 127 0" result="hardAlpha"/>
<feOffset dy="1"/>
<feGaussianBlur stdDeviation="1"/>
<feColorMatrix type="matrix" values="0 0 0 0 0.411765 0 0 0 0 0.317647 0 0 0 0 1 0 0 0 0.05 0"/>
<feBlend mode="normal" in2="BackgroundImageFix" result="effect1_dropShadow_1_627"/>
<feBlend mode="normal" in="SourceGraphic" in2="effect1_dropShadow_1_627" result="shape"/>
</filter>
</defs>
</svg>
